Coordinates
version=1
nRows=96
nColumns=11
inDegrees=no

Units are S.I. units (second, meters, Newtons, ...)
If the header above contains a line with 'inDegrees', this indicates whether rotational values are in degrees (yes) or radians (no).

endheader
time	pelvis_tilt	pelvis_tx	pelvis_ty	hip_flexion_r	knee_angle_r	ankle_angle_r	hip_flexion_l	knee_angle_l	ankle_angle_l	lumbar_extension
0.01	-0.00929246	0.0266162	1.02848	0.0528733	-0.172587	0.225617	0.0217843	-0.15138	0.206482	0
0.02	-0.00904808	0.0264851	1.02836	0.054513	-0.17594	0.226676	0.0270901	-0.161666	0.210034	0
0.03	-0.00928907	0.0262402	1.02832	0.0555865	-0.1771	0.226857	0.0276192	-0.161613	0.210512	0
0.04	-0.00916987	0.0261022	1.02835	0.0557524	-0.177644	0.226389	0.0274362	-0.161362	0.21023	0
0.05	-0.00911168	0.0260084	1.0284	0.0557043	-0.17743	0.226276	0.0272479	-0.161045	0.210203	0
0.06	-0.00922087	0.025771	1.0284	0.05628	-0.177632	0.225898	0.0279388	-0.161813	0.210024	0
0.07	-0.00925617	0.0253904	1.02832	0.0573901	-0.179128	0.225349	0.0289331	-0.162719	0.210576	0
0.08	-0.00893132	0.0251561	1.02831	0.0582942	-0.181167	0.225292	0.0291196	-0.163203	0.210548	0
0.09	-0.00846421	0.0250703	1.02841	0.0585648	-0.18231	0.227015	0.0288333	-0.163693	0.209977	0
0.1	-0.00846766	0.0250153	1.02841	0.0593209	-0.18296	0.227833	0.0294242	-0.164371	0.209477	0
0.11	-0.00944942	0.0239186	1.02844	0.0604053	-0.184007	0.227809	0.0302278	-0.164643	0.209775	0
0.12	-0.0102195	0.0246007	1.02822	0.0631896	-0.183912	0.227351	0.0320654	-0.162398	0.209324	0
0.13	-0.00998112	0.024524	1.02827	0.0640196	-0.185661	0.227354	0.0317019	-0.161828	0.208582	0
0.14	-0.00990219	0.024205	1.0283	0.0647391	-0.187193	0.22838	0.0317069	-0.162069	0.209051	0
0.15	-0.00897216	0.0237273	1.0284	0.0642054	-0.189225	0.228233	0.0315115	-0.164763	0.208389	0
0.16	-0.00913486	0.0233657	1.02839	0.0653323	-0.190368	0.22759	0.0327724	-0.166188	0.208362	0
0.17	-0.00994591	0.0228705	1.02839	0.0675605	-0.191774	0.227192	0.0347056	-0.167075	0.208519	0
0.18	-0.0434658	0.0317563	1.02551	0.085876	-0.177599	0.230154	0.052149	-0.151303	0.210601	0
0.19	-0.0102651	0.0224115	1.02826	0.0691584	-0.193207	0.228305	0.0343465	-0.164628	0.20894	0
0.2	-0.0109363	0.0221629	1.0282	0.0704144	-0.193672	0.228424	0.035293	-0.164455	0.207989	0
0.21	-0.0119606	0.0218079	1.02815	0.0723926	-0.194696	0.227722	0.0373413	-0.165386	0.207502	0
0.22	-0.0452863	0.0307566	1.02538	0.0899839	-0.179786	0.229308	0.0554393	-0.15143	0.209283	0
0.23	-0.01192	0.0213693	1.02829	0.0724321	-0.193935	0.22689	0.0385327	-0.166826	0.207716	0
0.24	-0.0457916	0.0302555	1.0255	0.0897298	-0.176745	0.22795	0.0564168	-0.150897	0.208686	0
0.25	-0.0402018	0.0314854	1.02601	0.0801275	-0.172446	0.227709	0.0468745	-0.146816	0.207989	0
0.26	-0.0412839	0.0307775	1.0259	0.0829105	-0.174412	0.227508	0.0494781	-0.148643	0.208013	0
0.27	-0.0411483	0.0302232	1.02593	0.0838907	-0.176071	0.22669	0.0501184	-0.149636	0.207807	0
0.28	-0.0418444	0.0299718	1.02575	0.0845012	-0.176584	0.227004	0.0505897	-0.149349	0.208307	0
0.29	-0.0427922	0.0297657	1.02558	0.0848516	-0.17659	0.228167	0.0513446	-0.149581	0.208778	0
0.3	-0.0442443	0.0293909	1.0254	0.0866865	-0.178502	0.229059	0.0532421	-0.151364	0.210247	0
0.31	-0.0463693	0.0288586	1.02505	0.0899407	-0.181362	0.231013	0.0561893	-0.154042	0.213215	0
0.32	-0.0462471	0.0283824	1.02485	0.0902654	-0.183172	0.232894	0.0564397	-0.156212	0.214998	0
0.33	-0.0132635	0.0191266	1.02756	0.073623	-0.200702	0.231558	0.0394304	-0.172852	0.215416	0
0.34	-0.0475749	0.0277299	1.02452	0.0920297	-0.186408	0.233356	0.057234	-0.157653	0.218248	0
0.35	-0.0133904	0.0188731	1.0274	0.0718674	-0.199875	0.231329	0.0370298	-0.171556	0.217229	0
0.36	-0.0141459	0.0186194	1.0273	0.0715149	-0.19888	0.232634	0.0367198	-0.170599	0.217681	0
0.37	-0.0477559	0.0273766	1.02433	0.0872125	-0.181926	0.235856	0.0517388	-0.152316	0.218438	0
0.38	-0.0139847	0.0183417	1.02715	0.0681978	-0.197337	0.232811	0.0312785	-0.16456	0.215427	0
0.39	-0.0477779	0.026949	1.02406	0.0854289	-0.18249	0.234133	0.0483464	-0.148972	0.218725	0
0.4	-0.01377	0.0179372	1.02696	0.0660799	-0.197469	0.232824	0.0303044	-0.166579	0.218748	0
0.41	-0.0474746	0.0263933	1.02411	0.0836443	-0.182958	0.236646	0.0494296	-0.155198	0.221813	0
0.42	-0.0462959	0.0260746	1.02444	0.0821334	-0.183142	0.238779	0.0488362	-0.15804	0.222997	0
0.43	-0.0455054	0.0256482	1.02461	0.0810303	-0.183004	0.239137	0.0489509	-0.160909	0.225417	0
0.44	-0.0447919	0.0250761	1.02471	0.0807154	-0.184489	0.238578	0.0516984	-0.168423	0.227258	0
0.45	-0.0431415	0.0245158	1.02502	0.0791455	-0.186163	0.237551	0.0548881	-0.178653	0.228526	0
0.46	-0.0400753	0.0241452	1.02549	0.0756168	-0.187594	0.238266	0.0564741	-0.189222	0.230576	0
0.47	-0.0368943	0.0237858	1.02586	0.0724366	-0.189743	0.239162	0.0592327	-0.202354	0.235276	0
0.48	-0.033614	0.0231893	1.02617	0.0700887	-0.193413	0.238656	0.0612149	-0.213737	0.237568	0
0.49	-0.0300163	0.0226585	1.02646	0.0672961	-0.196907	0.238711	0.0629255	-0.225734	0.237623	0
0.5	-0.0258529	0.0225497	1.02676	0.0626528	-0.19877	0.240762	0.0642472	-0.239067	0.239628	0
0.51	-0.0223471	0.022316	1.02701	0.0585545	-0.2004	0.240385	0.0660949	-0.251798	0.243496	0
0.52	-0.0307249	0.0190606	1.02563	0.0756483	-0.211495	0.245241	0.0901221	-0.276773	0.250887	0
0.53	-0.0299113	0.0177419	1.02537	0.0772262	-0.216018	0.251209	0.0997679	-0.296951	0.255358	0
0.54	-0.0283605	0.0168281	1.0252	0.0765467	-0.219587	0.255434	0.10771	-0.316094	0.257856	0
0.55	-0.027188	0.0157653	1.02498	0.0769503	-0.224163	0.257563	0.117261	-0.336881	0.259313	0
0.56	-0.0269563	0.0145153	1.0247	0.0787569	-0.228676	0.258303	0.129857	-0.360453	0.261473	0
0.57	-0.027557	0.0133068	1.02439	0.0807089	-0.231301	0.259849	0.144491	-0.386062	0.262137	0
0.58	-0.0288863	0.0117198	1.024	0.0833579	-0.233081	0.262629	0.162881	-0.416993	0.260373	0
0.59	-0.02808	0.0101691	1.02382	0.0824287	-0.232949	0.262856	0.180319	-0.450306	0.257244	0
0.6	-0.026126	0.00887283	1.02382	0.0809068	-0.234802	0.264898	0.197494	-0.485688	0.251555	0
0.61	-0.0240649	0.00762052	1.02376	0.0788283	-0.236102	0.268297	0.216147	-0.524326	0.246189	0
0.62	-0.0231841	0.00613988	1.02359	0.077862	-0.236319	0.270026	0.237104	-0.563458	0.237683	0
0.63	-0.022639	0.00466972	1.02349	0.0779425	-0.237507	0.269001	0.25956	-0.603641	0.22254	0
0.64	-0.02312	0.00300454	1.02323	0.0809496	-0.242168	0.27036	0.286032	-0.647525	0.205071	0
0.65	-0.023303	0.00143497	1.02299	0.082962	-0.245571	0.276509	0.312387	-0.690439	0.184372	0
0.66	-0.0209333	2.38217e-05	1.02308	0.0804123	-0.245969	0.279814	0.334621	-0.730417	0.163244	0
0.67	-0.0188313	-0.001564	1.02303	0.0788508	-0.247296	0.283558	0.356839	-0.769019	0.142377	0
0.68	-0.0189859	-0.00328215	1.0228	0.0805276	-0.250223	0.284655	0.381467	-0.805802	0.118086	0
0.69	-0.0203327	-0.00495387	1.02239	0.0835496	-0.253562	0.28321	0.407414	-0.841767	0.0918452	0
0.7	-0.0207547	-0.00631547	1.02198	0.0845065	-0.255005	0.284638	0.430049	-0.872911	0.0720747	0
0.71	-0.0217707	-0.00766107	1.02152	0.0863092	-0.256858	0.287829	0.449065	-0.894135	0.0654965	0
0.72	-0.0231918	-0.00874648	1.02108	0.0878848	-0.25883	0.291644	0.463816	-0.904672	0.0702529	0
0.73	-0.0243481	-0.00969295	1.02069	0.0886223	-0.260512	0.294568	0.476639	-0.909313	0.0768954	0
0.74	-0.0247609	-0.010448	1.0204	0.0884185	-0.261931	0.295372	0.48675	-0.907074	0.0845891	0
0.75	-0.0249098	-0.0110318	1.02023	0.0873134	-0.262586	0.296723	0.494494	-0.898359	0.0947126	0
0.76	-0.025312	-0.0115689	1.02015	0.0858527	-0.261681	0.298068	0.499697	-0.882183	0.107619	0
0.77	-0.0265123	-0.0121738	1.02006	0.0850535	-0.260883	0.298348	0.503973	-0.8607	0.118283	0
0.78	-0.0274371	-0.0124979	1.02011	0.0839414	-0.260499	0.299355	0.506585	-0.835276	0.125656	0
0.79	-0.0267889	-0.0125381	1.02032	0.0802955	-0.258722	0.299056	0.505219	-0.804374	0.133482	0
0.8	-0.0232497	-0.0122495	1.0208	0.0720161	-0.254509	0.297529	0.498268	-0.768281	0.138042	0
0.81	-0.0210011	-0.0121635	1.02109	0.0660623	-0.252199	0.295054	0.492606	-0.730828	0.138372	0
0.82	-0.0208082	-0.0122885	1.02115	0.063374	-0.252133	0.29661	0.488087	-0.691401	0.132383	0
0.83	-0.021473	-0.0122583	1.02097	0.0616172	-0.252375	0.300903	0.483601	-0.651346	0.126978	0
0.84	-0.0224294	-0.0120921	1.02067	0.0596907	-0.251534	0.302742	0.479204	-0.611306	0.11981	0
0.85	-0.0221997	-0.0116723	1.02052	0.0555065	-0.24935	0.303512	0.471189	-0.568946	0.109613	0
0.86	-0.0227809	-0.0112534	1.02019	0.0523476	-0.247576	0.305439	0.462415	-0.525297	0.0999705	0
0.87	-0.0229752	-0.0105599	1.01979	0.0482898	-0.245656	0.310668	0.457174	-0.490863	0.0897221	0
0.88	-0.021298	-0.0092938	1.01921	0.0410791	-0.2428	0.316246	0.446919	-0.456289	0.085134	0
0.89	-0.0202578	-0.00825681	1.01861	0.035442	-0.241903	0.320675	0.437127	-0.424279	0.0802427	0
0.9	-0.0183267	-0.00725154	1.01815	0.0298835	-0.243291	0.324232	0.427681	-0.398179	0.0774711	0
0.91	-0.0176598	-0.00628424	1.01744	0.0251705	-0.24327	0.330673	0.420892	-0.377597	0.0777565	0
0.92	-0.0188595	-0.00539967	1.01645	0.022242	-0.242014	0.337004	0.416538	-0.36034	0.0792824	0
0.93	-0.0186724	-0.00442875	1.01556	0.0179804	-0.241633	0.340525	0.412318	-0.349704	0.0824866	0
0.94	-0.0162079	-0.00288676	1.01485	0.0107198	-0.24208	0.344845	0.404617	-0.34254	0.0872354	0
0.95	-0.0122352	-0.0011002	1.01449	0.00146427	-0.242142	0.35308	0.393989	-0.337582	0.0865122	0
0.96	-0.00919045	0.000397357	1.01398	-0.00649502	-0.241618	0.360665	0.384313	-0.334954	0.0836965	0
